<svg width="40" height="40" viewBox="0 0 40 40" fill="none" xmlns="http://www.w3.org/2000/svg">
<rect width="40" height="40" fill="white" style="fill:white;fill:white;fill-opacity:1;"/>
<path fill-rule="evenodd" clip-rule="evenodd" d="M5.96511 29.6617C4.25824 28.6763 3.67342 26.4937 4.65888 24.7868L12.247 11.6438C13.2325 9.93695 15.415 9.35213 17.1219 10.3376C18.8288 11.3231 19.4136 13.5056 18.4281 15.2125L10.84 28.3555C9.85454 30.0624 7.67198 30.6472 5.96511 29.6617ZM17.6758 29.6618C15.9689 28.6764 15.3841 26.4938 16.3696 24.7869L23.9577 11.6439C24.9431 9.93706 27.1257 9.35224 28.8326 10.3377C30.5394 11.3232 31.1243 13.5057 30.1388 15.2126L22.5507 28.3556C21.5652 30.0625 19.3827 30.6473 17.6758 29.6618ZM28.1071 24.7869C27.1216 26.4938 27.7065 28.6764 29.4133 29.6618C31.1202 30.6473 33.3028 30.0625 34.2882 28.3556L35.34 26.5338C36.3255 24.8269 35.7407 22.6444 34.0338 21.6589C32.327 20.6735 30.1444 21.2583 29.1589 22.9651L28.1071 24.7869Z" fill="#222222" style="fill:#222222;fill:color(display-p3 0.1333 0.1333 0.1333);fill-opacity:1;"/>
</svg>
