<svg width="512" height="512" viewBox="0 0 512 512" fill="none" xmlns="http://www.w3.org/2000/svg">
<path fill-rule="evenodd" clip-rule="evenodd" d="M46.627 400.136C21.1644 385.435 12.4402 352.876 27.1411 327.414L140.339 131.35C155.039 105.887 187.598 97.1631 213.061 111.864C238.524 126.565 247.248 159.124 232.547 184.586L119.349 380.65C104.648 406.113 72.0896 414.837 46.627 400.136ZM221.352 400.136C195.889 385.435 187.165 352.877 201.866 327.414L315.064 131.35C329.765 105.887 362.323 97.1632 387.786 111.864C413.249 126.565 421.973 159.124 407.272 184.586L294.074 380.65C279.374 406.113 246.815 414.837 221.352 400.136ZM376.96 327.414C362.259 352.877 370.983 385.435 396.446 400.136C421.909 414.837 454.468 406.113 469.168 380.65L484.859 353.473C499.56 328.011 490.836 295.452 465.373 280.751C439.911 266.05 407.352 274.774 392.651 300.237L376.96 327.414Z" fill="white"/>
</svg>
