<svg width="2145" height="512" viewBox="0 0 2145 512" fill="none" xmlns="http://www.w3.org/2000/svg">
<path fill-rule="evenodd" clip-rule="evenodd" d="M78.627 400.136C53.1644 385.435 44.4402 352.876 59.1411 327.414L172.339 131.35C187.039 105.887 219.598 97.1631 245.061 111.864C270.524 126.565 279.248 159.124 264.547 184.586L151.349 380.65C136.648 406.113 104.09 414.837 78.627 400.136ZM253.352 400.136C227.889 385.435 219.165 352.877 233.866 327.414L347.064 131.35C361.765 105.887 394.323 97.1632 419.786 111.864C445.249 126.565 453.973 159.124 439.272 184.586L326.074 380.65C311.374 406.113 278.815 414.837 253.352 400.136ZM408.96 327.414C394.259 352.877 402.983 385.435 428.446 400.136C453.909 414.837 486.468 406.113 501.168 380.65L516.859 353.473C531.56 328.011 522.836 295.452 497.373 280.751C471.911 266.05 439.352 274.774 424.651 300.237L408.96 327.414Z" fill="#111111"/>
<path d="M678.964 407.12C675.748 407.12 673.116 406.098 671.07 404.054C669.023 402.009 668 399.527 668 396.607V111.451C668 108.239 669.023 105.61 671.07 103.566C673.116 101.522 675.748 100.5 678.964 100.5H713.61C717.704 100.5 720.774 101.668 722.82 104.004C724.867 106.048 726.183 107.654 726.767 108.823L811.41 266.513L896.93 108.823C897.514 107.654 898.83 106.048 900.877 104.004C902.923 101.668 905.993 100.5 910.087 100.5H944.295C947.511 100.5 950.142 101.522 952.189 103.566C954.235 105.61 955.259 108.239 955.259 111.451V396.607C955.259 399.527 954.235 402.009 952.189 404.054C950.142 406.098 947.511 407.12 944.295 407.12H907.455C904.239 407.12 901.608 406.098 899.561 404.054C897.807 402.009 896.93 399.527 896.93 396.607V206.941L835.531 323.894C834.069 326.523 832.169 328.859 829.83 330.903C827.491 332.655 824.421 333.531 820.62 333.531H802.639C798.545 333.531 795.329 332.655 792.99 330.903C790.944 328.859 789.189 326.523 787.728 323.894L726.329 206.941V396.607C726.329 399.527 725.305 402.009 723.259 404.054C721.212 406.098 718.727 407.12 715.803 407.12H678.964Z" fill="#111111"/>
<path d="M1145.83 411.5C1120.4 411.5 1098.32 407.266 1079.61 398.797C1060.9 390.037 1046.43 376.75 1036.19 358.937C1025.96 340.831 1020.84 317.762 1020.84 289.728V111.451C1020.84 108.239 1021.87 105.61 1023.91 103.566C1025.96 101.522 1028.45 100.5 1031.37 100.5H1071.28C1074.5 100.5 1076.98 101.522 1078.73 103.566C1080.78 105.61 1081.8 108.239 1081.8 111.451V289.728C1081.8 313.674 1087.51 331.487 1098.91 343.168C1110.31 354.556 1125.95 360.251 1145.83 360.251C1165.72 360.251 1181.21 354.556 1192.32 343.168C1203.73 331.487 1209.43 313.674 1209.43 289.728V111.451C1209.43 108.239 1210.45 105.61 1212.5 103.566C1214.54 101.522 1217.17 100.5 1220.39 100.5H1259.86C1263.08 100.5 1265.56 101.522 1267.32 103.566C1269.36 105.61 1270.39 108.239 1270.39 111.451V289.728C1270.39 317.762 1265.27 340.831 1255.04 358.937C1245.1 376.75 1230.77 390.037 1212.06 398.797C1193.64 407.266 1171.56 411.5 1145.83 411.5Z" fill="#111111"/>
<path d="M1346.65 407.12C1343.72 407.12 1341.24 406.098 1339.19 404.054C1337.15 402.009 1336.12 399.527 1336.12 396.607V111.451C1336.12 108.239 1337.15 105.61 1339.19 103.566C1341.24 101.522 1343.72 100.5 1346.65 100.5H1536.98C1540.2 100.5 1542.83 101.522 1544.88 103.566C1546.93 105.61 1547.95 108.239 1547.95 111.451V142.113C1547.95 145.325 1546.93 147.953 1544.88 149.997C1542.83 151.749 1540.2 152.625 1536.98 152.625H1396.21V235.851H1528.21C1531.43 235.851 1534.06 236.873 1536.11 238.917C1538.15 240.961 1539.18 243.589 1539.18 246.801V277.463C1539.18 280.384 1538.15 282.866 1536.11 284.91C1534.06 286.954 1531.43 287.976 1528.21 287.976H1396.21V396.607C1396.21 399.527 1395.18 402.009 1393.14 404.054C1391.09 406.098 1388.46 407.12 1385.24 407.12H1346.65Z" fill="#111111"/>
<path d="M1610.04 407.12C1607.12 407.12 1604.63 406.098 1602.59 404.054C1600.54 402.009 1599.52 399.527 1599.52 396.607V111.451C1599.52 108.239 1600.54 105.61 1602.59 103.566C1604.63 101.522 1607.12 100.5 1610.04 100.5H1803.01C1806.23 100.5 1808.86 101.522 1810.91 103.566C1812.95 105.61 1813.97 108.239 1813.97 111.451V140.361C1813.97 143.281 1812.95 145.763 1810.91 147.807C1808.86 149.851 1806.23 150.873 1803.01 150.873H1658.72V228.404H1793.36C1796.58 228.404 1799.21 229.426 1801.26 231.47C1803.3 233.223 1804.33 235.705 1804.33 238.917V266.075C1804.33 269.287 1803.3 271.915 1801.26 273.959C1799.21 275.711 1796.58 276.587 1793.36 276.587H1658.72V356.746H1806.52C1809.74 356.746 1812.37 357.769 1814.41 359.813C1816.46 361.857 1817.48 364.485 1817.48 367.697V396.607C1817.48 399.527 1816.46 402.009 1814.41 404.054C1812.37 406.098 1809.74 407.12 1806.52 407.12H1610.04Z" fill="#111111"/>
<path d="M1855.23 407.12C1852.6 407.12 1850.41 406.244 1848.65 404.492C1846.9 402.739 1846.02 400.549 1846.02 397.921C1846.02 397.045 1846.17 396.169 1846.46 395.293C1846.75 394.417 1847.04 393.541 1847.34 392.665L1945.57 250.744L1853.48 114.955C1852.6 113.203 1852.16 111.451 1852.16 109.699C1852.16 107.07 1853.04 104.88 1854.79 103.128C1856.55 101.376 1858.59 100.5 1860.93 100.5H1906.1C1909.61 100.5 1912.39 101.376 1914.44 103.128C1916.48 104.88 1918.24 106.778 1919.7 108.823L1984.17 203.437L2049.08 108.823C2050.25 106.778 2051.85 104.88 2053.9 103.128C2056.24 101.376 2059.16 100.5 2062.67 100.5H2105.21C2107.84 100.5 2110.04 101.376 2111.79 103.128C2113.54 104.88 2114.42 107.07 2114.42 109.699C2114.42 111.451 2113.84 113.203 2112.67 114.955L2021.01 250.744L2119.25 392.665C2119.83 393.541 2120.27 394.417 2120.56 395.293C2120.85 396.169 2121 397.045 2121 397.921C2121 400.549 2119.98 402.739 2117.93 404.492C2116.18 406.244 2114.13 407.12 2111.79 407.12H2065.3C2061.79 407.12 2059.02 406.244 2056.97 404.492C2054.92 402.739 2053.32 400.987 2052.15 399.235L1981.98 300.241L1913.12 399.235C1911.95 400.987 1910.34 402.739 1908.3 404.492C1906.25 406.244 1903.33 407.12 1899.53 407.12H1855.23Z" fill="#111111"/>
</svg>
